<svg width="18" height="18" viewBox="0 0 18 18" fill="none" xmlns="http://www.w3.org/2000/svg">
<path d="M8.71468 0.878115C8.80449 0.601722 9.19551 0.601722 9.28532 0.878115L11.1778 6.70254C11.2179 6.82614 11.3331 6.90983 11.4631 6.90983H17.5873C17.8779 6.90983 17.9987 7.28171 17.7636 7.45254L12.809 11.0522C12.7039 11.1286 12.6599 11.264 12.7001 11.3876L14.5925 17.2121C14.6823 17.4884 14.366 17.7183 14.1309 17.5475L9.17634 13.9478C9.07119 13.8714 8.92881 13.8714 8.82366 13.9478L3.86912 17.5475C3.634 17.7183 3.31766 17.4884 3.40746 17.2121L5.29993 11.3876C5.3401 11.264 5.2961 11.1286 5.19095 11.0522L0.236404 7.45253C0.00129022 7.28171 0.122123 6.90983 0.41274 6.90983H6.5369C6.66687 6.90983 6.78205 6.82614 6.82221 6.70254L8.71468 0.878115Z" fill="#FF346E"/>
</svg>
