<svg width="200" height="50" viewBox="0 0 200 50" fill="none" xmlns="http://www.w3.org/2000/svg">
<rect width="200" height="50" fill="white"/>
<path d="M2.71925 36V19.446H6.59425V36H2.71925ZM4.67225 16.718C3.94891 16.718 3.34958 16.4907 2.87425 16.036C2.41958 15.5813 2.19225 15.0337 2.19225 14.393C2.19225 13.7317 2.41958 13.184 2.87425 12.75C3.34958 12.2953 3.94891 12.068 4.67225 12.068C5.39558 12.068 5.98458 12.285 6.43925 12.719C6.91458 13.1323 7.15225 13.6593 7.15225 14.3C7.15225 14.982 6.92491 15.5607 6.47025 16.036C6.01558 16.4907 5.41625 16.718 4.67225 16.718ZM20.6196 36V14.3H24.6496V32.59H35.9956V36H20.6196ZM48.2054 36.31C45.2294 36.31 42.8941 35.473 41.1994 33.799C39.5254 32.125 38.6884 29.707 38.6884 26.545V14.3H42.7184V26.39C42.7184 28.622 43.1938 30.2443 44.1444 31.257C45.1158 32.2697 46.4798 32.776 48.2365 32.776C49.9931 32.776 51.3468 32.2697 52.2974 31.257C53.2481 30.2443 53.7234 28.622 53.7234 26.39V14.3H57.6915V26.545C57.6915 29.707 56.8441 32.125 55.1494 33.799C53.4755 35.473 51.1608 36.31 48.2054 36.31ZM69.7524 36L60.2664 14.3H64.6374L73.1004 33.923H70.5894L79.1454 14.3H83.1754L73.7204 36H69.7524ZM97.8658 36.31C96.4811 36.31 95.1998 36.0413 94.0218 35.504C92.8644 34.9667 91.9138 34.1917 91.1698 33.179L93.4638 30.42C94.0631 31.2467 94.7141 31.8667 95.4168 32.28C96.1401 32.6933 96.9254 32.9 97.7728 32.9C100.025 32.9 101.152 31.567 101.152 28.901V17.679H93.4328V14.3H105.182V28.684C105.182 31.2467 104.551 33.1583 103.291 34.419C102.051 35.6797 100.242 36.31 97.8658 36.31ZM114.554 23.321H125.342V26.638H114.554V23.321ZM114.864 32.621H127.109V36H110.834V14.3H126.675V17.679H114.864V32.621ZM134.981 36.31C133.596 36.31 132.315 36.0413 131.137 35.504C129.98 34.9667 129.029 34.1917 128.285 33.179L130.579 30.42C131.178 31.2467 131.829 31.8667 132.532 32.28C133.255 32.6933 134.041 32.9 134.888 32.9C137.141 32.9 138.267 31.567 138.267 28.901V17.679H130.548V14.3H142.297V28.684C142.297 31.2467 141.667 33.1583 140.406 34.419C139.166 35.6797 137.358 36.31 134.981 36.31ZM157.281 36.31C154.305 36.31 151.969 35.473 150.275 33.799C148.601 32.125 147.764 29.707 147.764 26.545V14.3H151.794V26.39C151.794 28.622 152.269 30.2443 153.22 31.257C154.191 32.2697 155.555 32.776 157.312 32.776C159.068 32.776 160.422 32.2697 161.373 31.257C162.323 30.2443 162.799 28.622 162.799 26.39V14.3H166.767V26.545C166.767 29.707 165.919 32.125 164.225 33.799C162.551 35.473 160.236 36.31 157.281 36.31ZM173.036 36.217C172.334 36.217 171.734 35.9793 171.238 35.504C170.742 35.008 170.494 34.388 170.494 33.644C170.494 32.8587 170.742 32.2387 171.238 31.784C171.734 31.3087 172.334 31.071 173.036 31.071C173.739 31.071 174.338 31.3087 174.834 31.784C175.33 32.2387 175.578 32.8587 175.578 33.644C175.578 34.388 175.33 35.008 174.834 35.504C174.338 35.9793 173.739 36.217 173.036 36.217Z" fill="#FF346E"/>
</svg>
